# xmcd
#
# Track frame offsets: 
#        150
#        16319
#        30413
#        70264
#        85935
#        98352
#        111579
#        122584
#        133126
#        152011
#        164565
#        177904
#        194508
#        211994
#        232363
#        248902
#        286221
#        305233
#        318235
#
# Disc length: 4512 seconds
#
# Revision: 1
# Processed by: cddbd v1.5.2PL0 Copyright (c) Steve Scherf et al.
# Submitted via: ExactAudioCopyFreeDBPlugin 1.0
#
DISCID=11119e13
DTITLE=Mike James Kirkland - Don't Sell Your Soul [disc 2] - Hang On I
DTITLE=n There and Doin' It Right
DYEAR=2011
DGENRE=Soul
TTITLE0=What Have We Done
TTITLE1=Where's The Soul Of Man?
TTITLE2=Hang On In There
TTITLE3=Baby I Need Your Loving
TTITLE4=Give It To Me
TTITLE5=Blota Blota
TTITLE6=You're Gonna Share Your Love
TTITLE7=It's Alright With Me
TTITLE8=The Prophet
TTITLE9=Together
TTITLE10=Love Is
TTITLE11=Got To Do It Right
TTITLE12=It's Too Late
TTITLE13=O Me O My (I'm A Fool For You Baby)
TTITLE14=You Put It On My Mind
TTITLE15=Doin' It Right
TTITLE16=Love Is All We Need
TTITLE17=Love Insurance
TTITLE18=The Only Change
EXTD=
EXTT0=
EXTT1=
EXTT2=
EXTT3=
EXTT4=
EXTT5=
EXTT6=
EXTT7=
EXTT8=
EXTT9=
EXTT10=
EXTT11=
EXTT12=
EXTT13=
EXTT14=
EXTT15=
EXTT16=
EXTT17=
EXTT18=
PLAYORDER=
